<svg aria-hidden="true" style="position: absolute; width: 0; height: 0; overflow: hidden;" version="1.1" xmlns="http://www.w3.org/2000/svg" xmlns:xlink="http://www.w3.org/1999/xlink">
<defs>
<symbol id="icon-invoice" viewBox="0 0 28 32">
<path d="M21 0h-12c-2.116 0-4 1.941-4 4l-1.156 0.027c-2.115 0-3.844 1.914-3.844 3.973v20c0 2.059 1.884 4 4 4h15c2.116 0 4-1.941 4-4h1c2.116 0 4-1.941 4-4v-15.976zM19 30h-15c-1.050 0-2-0.981-2-2v-20c0-1.019 0.855-1.967 1.905-1.967l1.095-0.033v18c0 2.059 1.884 4 4 4h12c-0 1.019-0.95 2-2 2zM26 24c0 1.019-0.95 2-2 2h-15c-1.050 0-2-0.981-2-2v-20c0-1.019 0.95-2 2-2h10c-0.016 2.303 0 4.025 0 4.025 0 2.078 1.87 3.975 4 3.975h3zM23 8c-1.065 0-2-1.935-2-2.973v-2.998l5 5.971zM21 14.018h-9c-0.552 0-0.999 0.447-0.999 0.999s0.447 0.999 0.999 0.999v0h9c0.552 0 0.999-0.447 0.999-0.999s-0.447-0.999-0.999-0.999v0zM21 19.013h-9c-0.552 0-0.999 0.447-0.999 0.999s0.447 0.999 0.999 0.999v0h9c0.552 0 0.999-0.447 0.999-0.999s-0.447-0.999-0.999-0.999v0z"></path>
</symbol>
<symbol id="icon-reports" viewBox="0 0 37 32">
<path d="M36.911 3.622c-0.001-1.999-1.621-3.62-3.621-3.622h-29.653c-0.002 0-0.004 0-0.006 0-2.002 0-3.626 1.621-3.631 3.622v20.475c0.007 2.001 1.631 3.621 3.634 3.621 0.001 0 0.002 0 0.004 0h12.165v2.513h-8.31c-0.489 0-0.885 0.396-0.885 0.885s0.396 0.885 0.885 0.885v0h21.941c0.489 0 0.885-0.396 0.885-0.885s-0.396-0.885-0.885-0.885v0h-7.164v-2.513h11.020c1.999-0.001 3.619-1.622 3.621-3.621v-0zM20.5 30.231h-2.929v-2.513h2.929zM33.29 25.949h-29.653c-0.001 0-0.003 0-0.005 0-1.025 0-1.857-0.828-1.863-1.851v-20.475c0.004-1.024 0.835-1.853 1.86-1.853 0.003 0 0.006 0 0.008 0h29.652c1.022 0.003 1.85 0.831 1.852 1.852v20.474c-0.001 1.023-0.829 1.851-1.852 1.852h-0z"></path>
<path d="M31.333 22.244h-1.134v-17.706c0-0 0-0.001 0-0.001 0-0.488-0.396-0.884-0.884-0.884-0 0-0 0-0.001 0h-3.028c-0 0-0.001 0-0.001 0-0.488 0-0.884 0.396-0.884 0.884 0 0 0 0 0 0.001v-0 17.706h-1.503v-12.155c0-0 0-0 0-0.001 0-0.488-0.396-0.884-0.884-0.884-0 0-0 0-0.001 0h-3.028c-0 0-0 0-0.001 0-0.488 0-0.884 0.396-0.884 0.884 0 0 0 0.001 0 0.001v-0 12.149h-1.519v-14.673c0-0 0-0 0-0.001 0-0.488-0.396-0.883-0.883-0.883-0 0-0.001 0-0.001 0h-3.039c-0 0-0 0-0.001 0-0.488 0-0.884 0.396-0.884 0.884 0 0 0 0 0 0.001v-0 14.679h-1.504v-9.627c0-0 0-0 0-0.001 0-0.488-0.396-0.884-0.884-0.884-0 0-0.001 0-0.001 0h-3.028c-0 0-0.001 0-0.001 0-0.488 0-0.884 0.396-0.884 0.884 0 0 0 0 0 0v0 9.627h-0.967c-0.002-0-0.005-0-0.008-0-0.488 0-0.884 0.396-0.884 0.884s0.396 0.884 0.884 0.884c0.003 0 0.005 0 0.008-0h25.828c0.002 0 0.005 0 0.008 0 0.488 0 0.884-0.396 0.884-0.884s-0.396-0.884-0.884-0.884c-0.003 0-0.005 0-0.008 0h0zM27.166 5.422h1.259v16.822h-1.259zM20.865 10.974h1.259v11.265h-1.259zM14.543 8.45h1.259v13.794h-1.259zM8.242 13.502h1.259v8.742h-1.259z"></path>
</symbol>
<symbol id="icon-settings" viewBox="0 0 32 32">
<path d="M28.872 11.733h-0.136c-0.419-0.003-0.776-0.265-0.92-0.633l-0.002-0.007c-0.048-0.112-0.076-0.243-0.076-0.38 0-0.273 0.111-0.519 0.289-0.698l0.097-0.097c0.565-0.567 0.914-1.348 0.914-2.212s-0.349-1.645-0.914-2.212l-1.611-1.611c-0.566-0.565-1.348-0.914-2.211-0.914s-1.645 0.349-2.211 0.914l-0.097 0.097c-0.183 0.176-0.433 0.285-0.707 0.285-0.557 0-1.010-0.447-1.020-1.001v-0.138c-0.002-1.727-1.401-3.126-3.127-3.127h-2.279c-1.727 0.002-3.126 1.401-3.127 3.127v0.138c-0.015 0.551-0.466 0.993-1.019 0.993-0.272 0-0.52-0.107-0.703-0.281l0 0-0.092-0.097c-0.566-0.565-1.348-0.914-2.211-0.914s-1.645 0.349-2.211 0.914l0-0-1.617 1.611c-0.565 0.567-0.914 1.348-0.914 2.212s0.349 1.645 0.914 2.212l0.097 0.097c0.176 0.18 0.284 0.426 0.284 0.697 0 0.147-0.032 0.287-0.089 0.413l0.003-0.006c-0.149 0.364-0.5 0.617-0.911 0.618h-0.137c-1.726 0.002-3.125 1.401-3.127 3.127v2.279c0.002 1.727 1.401 3.126 3.127 3.128h0.136c0.419 0.004 0.775 0.265 0.919 0.633l0.002 0.007c0.048 0.112 0.076 0.243 0.076 0.38 0 0.273-0.111 0.519-0.289 0.698l-0.097 0.097c-0.565 0.567-0.914 1.348-0.914 2.212s0.349 1.645 0.914 2.212l1.611 1.61c0.566 0.566 1.348 0.915 2.212 0.915s1.646-0.35 2.212-0.915l0.097-0.097c0.18-0.176 0.426-0.284 0.698-0.284 0.147 0 0.287 0.032 0.413 0.089l-0.006-0.003c0.364 0.149 0.617 0.5 0.618 0.91v0.138c0 0.001 0 0.001 0 0.002 0 1.729 1.402 3.131 3.131 3.131 0.001 0 0.001 0 0.002 0h2.278c1.727-0.002 3.126-1.401 3.128-3.127v-0.138c0.015-0.552 0.466-0.993 1.019-0.993 0.272 0 0.52 0.107 0.703 0.281l-0-0 0.097 0.097c0.566 0.565 1.348 0.914 2.211 0.914s1.645-0.349 2.211-0.914l-0 0 1.612-1.61c0.565-0.567 0.914-1.348 0.914-2.212s-0.349-1.645-0.914-2.212l-0.097-0.097c-0.176-0.18-0.284-0.426-0.284-0.697 0-0.147 0.032-0.287 0.089-0.413l-0.003 0.006c0.149-0.364 0.5-0.617 0.911-0.618h0.136c1.727-0.002 3.126-1.401 3.128-3.127v-2.279c-0.002-1.727-1.401-3.126-3.127-3.127h-0zM29.867 17.139c-0.001 0.549-0.445 0.994-0.994 0.994h-0.136c-1.73 0.015-3.126 1.421-3.126 3.153 0 0.861 0.345 1.642 0.905 2.211l-0-0 0.096 0.097c0.18 0.18 0.291 0.429 0.291 0.703s-0.111 0.523-0.291 0.703l0-0-1.612 1.61c-0.18 0.18-0.428 0.291-0.703 0.291s-0.523-0.111-0.703-0.291v0l-0.096-0.097c-0.569-0.558-1.349-0.903-2.209-0.903-1.732 0-3.137 1.396-3.154 3.123v0.139c-0.001 0.549-0.445 0.994-0.994 0.994h-2.279c-0.549-0.001-0.993-0.445-0.994-0.994v-0.138c-0.009-1.732-1.415-3.132-3.148-3.132-0.864 0-1.647 0.348-2.216 0.912l-0.097 0.097c-0.18 0.179-0.429 0.29-0.703 0.29s-0.523-0.111-0.703-0.29l-1.611-1.61c-0.18-0.18-0.291-0.429-0.291-0.703s0.111-0.523 0.291-0.703l0.097-0.097c0.56-0.569 0.905-1.35 0.905-2.211 0-1.733-1.398-3.139-3.127-3.153h-0.137c-0.549-0.001-0.994-0.445-0.994-0.994v-2.279c0.001-0.549 0.445-0.994 0.994-0.994h0.136c1.73-0.015 3.127-1.421 3.127-3.153 0-0.861-0.345-1.642-0.905-2.211l0 0-0.096-0.098c-0.18-0.18-0.291-0.428-0.291-0.703s0.111-0.523 0.291-0.703l1.611-1.611c0.18-0.18 0.428-0.291 0.703-0.291s0.523 0.111 0.703 0.291v0l0.096 0.097c0.569 0.559 1.349 0.904 2.21 0.904 1.732 0 3.137-1.395 3.154-3.123v-0.139c0.001-0.549 0.445-0.994 0.994-0.994h2.278c0.549 0.001 0.994 0.445 0.994 0.994v0.138c0.016 1.729 1.421 3.125 3.153 3.125 0.861 0 1.642-0.345 2.211-0.905l0.097-0.097c0.18-0.18 0.428-0.291 0.703-0.291s0.523 0.111 0.703 0.291l1.611 1.612c0.18 0.18 0.291 0.428 0.291 0.703s-0.111 0.523-0.291 0.703l-0.097 0.097c-0.559 0.569-0.904 1.349-0.904 2.21 0 1.732 1.397 3.138 3.126 3.153h0.137c0.549 0.001 0.994 0.445 0.994 0.994v0z"></path>
<path d="M16 8.533c-4.124 0-7.466 3.343-7.466 7.466s3.343 7.466 7.466 7.466c4.124 0 7.466-3.343 7.466-7.466v0c0-4.124-3.343-7.466-7.466-7.466v0zM16 21.333c-2.945-0-5.333-2.388-5.333-5.333s2.388-5.333 5.333-5.333c2.945 0 5.333 2.388 5.333 5.333v0c0 0 0 0 0 0 0 2.946-2.388 5.333-5.333 5.333-0 0-0 0-0 0v0z"></path>
</symbol>
<symbol id="icon-users" viewBox="0 0 45 32">
<path stroke-linejoin="miter" stroke-linecap="butt" stroke-miterlimit="4" stroke-width="0.4531" d="M9.020 15.294c-2.802-0.027-5.063-2.304-5.063-5.109 0-2.822 2.288-5.109 5.109-5.109s5.109 2.288 5.109 5.109c0 0 0 0 0 0v0c-0.017 2.825-2.311 5.109-5.139 5.109-0.006 0-0.012 0-0.018-0h0.001zM9.020 6.509c-2.010 0.026-3.629 1.662-3.629 3.675 0 2.030 1.646 3.676 3.676 3.676s3.675-1.646 3.676-3.675v0c-0.016-2.033-1.668-3.676-3.704-3.676-0.007 0-0.013 0-0.020 0h0.001zM9.020 6.509"></path>
<path stroke-linejoin="miter" stroke-linecap="butt" stroke-miterlimit="4" stroke-width="0.4531" d="M11.094 29.44h-8.994c-0.001 0-0.003 0-0.004 0-1.030 0-1.866-0.833-1.87-1.862v-2.346c0-4.801 3.944-8.707 8.793-8.707 0.008-0 0.018-0 0.028-0 1.966 0 3.78 0.646 5.243 1.737l-0.023-0.017c0.174 0.132 0.286 0.34 0.286 0.573 0 0.396-0.321 0.717-0.717 0.717-0.158 0-0.303-0.051-0.422-0.137l0.002 0.001c-1.206-0.9-2.726-1.441-4.372-1.441-0.009 0-0.017 0-0.026 0h0.001c-4.058 0-7.359 3.263-7.359 7.273v2.345c0.004 0.237 0.197 0.428 0.435 0.428 0.002 0 0.004 0 0.006-0h8.994c0.396 0 0.717 0.321 0.717 0.717s-0.321 0.717-0.717 0.717v0zM11.094 29.44"></path>
<path stroke-linejoin="miter" stroke-linecap="butt" stroke-miterlimit="4" stroke-width="0.4531" d="M42.805 28.898h-8.994c-0.396 0-0.717-0.321-0.717-0.717s0.321-0.717 0.717-0.717v0h8.994c0.002 0 0.004 0 0.005 0 0.237 0 0.43-0.191 0.434-0.427v-2.345c0-4.011-3.301-7.273-7.359-7.273-1.771 0-3.397 0.62-4.673 1.655l0.014-0.011c-0.123 0.101-0.281 0.163-0.455 0.163-0.396 0-0.717-0.321-0.717-0.717 0-0.226 0.105-0.428 0.268-0.559l0.001-0.001c1.506-1.222 3.447-1.963 5.561-1.963h0c4.848 0 8.793 3.906 8.793 8.707v2.345c-0.005 1.029-0.84 1.862-1.87 1.862-0.001 0-0.003 0-0.004 0h0zM42.805 28.898"></path>
<path stroke-linejoin="miter" stroke-linecap="butt" stroke-miterlimit="4" stroke-width="0.4531" d="M35.886 14.94c-2.801-0.027-5.062-2.304-5.062-5.109 0-2.822 2.288-5.109 5.109-5.109s5.109 2.288 5.109 5.109c0 0 0 0 0 0v0c-0.017 2.825-2.311 5.109-5.139 5.109-0.006 0-0.013 0-0.019-0h0.001zM35.886 6.155c-2.010 0.027-3.628 1.662-3.628 3.675 0 2.030 1.646 3.676 3.676 3.676s3.676-1.646 3.676-3.676v0c-0.016-2.033-1.668-3.675-3.703-3.675-0.007 0-0.014 0-0.021 0h0.001zM35.886 6.155"></path>
<path stroke-linejoin="miter" stroke-linecap="butt" stroke-miterlimit="4" stroke-width="0.4531" d="M32.184 31.773h-19.462c-0.002 0-0.004 0-0.006 0-1.288 0-2.332-1.041-2.339-2.327v-3.299c0-6.592 5.416-11.955 12.075-11.955s12.075 5.363 12.075 11.955v3.298c-0.006 1.287-1.051 2.327-2.339 2.327-0.002 0-0.004 0-0.006 0h0zM22.453 15.627c-5.868 0-10.642 4.72-10.642 10.521v3.298c0.006 0.495 0.408 0.893 0.903 0.893 0.003 0 0.005 0 0.008-0h19.461c0.002 0 0.005 0 0.007 0 0.495 0 0.898-0.399 0.903-0.893v-3.298c0-5.801-4.773-10.521-10.641-10.521zM22.453 15.627"></path>
<path stroke-linejoin="miter" stroke-linecap="butt" stroke-miterlimit="4" stroke-width="0.4531" d="M22.203 13.355c-3.653 0-6.626-2.945-6.626-6.564s2.973-6.564 6.626-6.564 6.627 2.945 6.627 6.564-2.973 6.564-6.627 6.564zM22.203 1.66c-0.007-0-0.016-0-0.025-0-2.841 0-5.146 2.292-5.167 5.128v0.002c0.035 2.841 2.347 5.13 5.193 5.13s5.157-2.289 5.193-5.127l0-0.003c-0.021-2.838-2.327-5.13-5.167-5.13-0.009 0-0.018 0-0.027 0h0.001zM22.203 1.66"></path>
</symbol>
<symbol id="icon-user" viewBox="0 0 24 24">
<path d="M21 21v-2c0-1.38-0.561-2.632-1.464-3.536s-2.156-1.464-3.536-1.464h-8c-1.38 0-2.632 0.561-3.536 1.464s-1.464 2.156-1.464 3.536v2c0 0.552 0.448 1 1 1s1-0.448 1-1v-2c0-0.829 0.335-1.577 0.879-2.121s1.292-0.879 2.121-0.879h8c0.829 0 1.577 0.335 2.121 0.879s0.879 1.292 0.879 2.121v2c0 0.552 0.448 1 1 1s1-0.448 1-1zM17 7c0-1.38-0.561-2.632-1.464-3.536s-2.156-1.464-3.536-1.464-2.632 0.561-3.536 1.464-1.464 2.156-1.464 3.536 0.561 2.632 1.464 3.536 2.156 1.464 3.536 1.464 2.632-0.561 3.536-1.464 1.464-2.156 1.464-3.536zM15 7c0 0.829-0.335 1.577-0.879 2.121s-1.292 0.879-2.121 0.879-1.577-0.335-2.121-0.879-0.879-1.292-0.879-2.121 0.335-1.577 0.879-2.121 1.292-0.879 2.121-0.879 1.577 0.335 2.121 0.879 0.879 1.292 0.879 2.121z"></path>
</symbol>
<symbol id="icon-logout" viewBox="0 0 24 24">
<path d="M3.984 5.016v13.969h8.016v2.016h-8.016q-0.797 0-1.383-0.609t-0.586-1.406v-13.969q0-0.797 0.586-1.406t1.383-0.609h8.016v2.016h-8.016zM17.016 6.984l4.969 5.016-4.969 5.016-1.406-1.453 2.578-2.578h-10.172v-1.969h10.172l-2.578-2.625z"></path>
</symbol>
</defs>
</svg>
